<svg xmlns="http://www.w3.org/2000/svg" viewBox="0 0 888.83 319.14">
  <rect x="43.64" y="43.64" width="231.86" height="231.86" rx="10.59" ry="10.59" transform="translate(-66.1 159.57) rotate(-45)" fill="currentColor" opacity="0.25"/>
  <g fill="currentColor">
    <path d="M147.65,77.92c5.51,3.91,10.1,7.36,14.65,12.5l5.79,7.49c6.29-12.26,9.13-27.43,20.03-36.71,13.09-11.15,34.08-8.88,45.5,3.58,3.04,3.32,4.68,7.61,8.24,10.48,5.38,4.32,14.11,4.35,20.42,6.92,1.01.41,3.73,1.41,2.05,2.82-.91.76-8.28.72-10.25.98-18.92,2.49-22.93,7.66-26.09,31.61-3.15,23.95-6.69,43.12-24.5,57.1-14.66,11.51-33.71,14.61-41.71,33.56-6.42,15.21-2.05,30.5,6.16,43.92,2,3.27,5.13,6.81,6.82,10.03.39.75.94,1.43.82,2.36-1.86,1.73-9.08-5.68-10.3-7.11-11.75-13.68-15.87-34.28-9.55-51.31-20.36,24.92-12.27,60.53,12.4,79.16,2.73,2.06,8.64,4.84,10.46,6.77.82.86,1.29,1.79-.2,2.07-4.72.87-14.25-5.28-17.96-8.25-22.34-17.82-28.77-50.81-14.21-75.6,18.58-31.63,61.93-28.69,72.78-71.4,4.82-18.99-.93-43.4,19.86-54.29l6.01-2.41c-4.02-.61-7.18-2.74-9.72-5.82-3.41-4.14-4.09-7.09-8.88-10.59-13.12-9.6-30.47-7.41-39.74,6.18-6.55,9.59-8.19,21.63-15.06,31.04-.12.86,1.95,4.54,2.44,5.79,6.05,15.45,5.88,30.07-2.64,44.52-12.73,21.61-35.38,33.3-49.67,53.69-14.08,20.09-18.06,39.79-17.53,64.13.05,2.23,1.61,6.96-.88,8.01-1.83-.32-3.77-10.33-3.93-12.2-2.17-25.93,7.95-54.04,25.05-73.34,20.96-23.66,58.82-42.49,44.09-80.81-15.06-39.17-70.93-47.48-100.24-72.77l-5.65-5.02c1.27,14.13,7.14,25.95,18.6,34.38,13.76,10.11,31.43,16.25,46,25.53,11.35,7.22,28.87,22.37,30.47,36.56,1.05,9.32-5.18.06-7.07-1.92-7.41-7.76-18.15-12.78-27.84-17.09-19.59-8.73-40.23-15.45-58.29-27.27,1.43,5.16,4.08,10.01,7.18,14.35,19.45,27.2,53.62,25.26,76.13,44.46,2.24,1.91,9.72,8.63,2.64,9-16.3-.23-47.65-8.73-48.13-8.63-3.46.73,32.63,19.07,42.15,20.94,2.39.47-.13,2.84-1.89,3.03-15.81,1.69-40.12-14.2-51.51-24.53-2.6-2.36-14.13-13.78-14.8-16.28-1.01-3.8,2.47-1.91,4.33-.95,19.84,10.23,32.35,17.15,55.61,18.91.44.03,2.05.31,2.05-.37-24.3-13.06-54.87-17.21-72.04-40.86-4.93-6.79-8.59-15.37-10.53-23.55-.49-2.07-3.05-9.76.72-9.37,4.61,2.71,8.78,6.26,13.36,9.15,21.82,13.73,46.94,20.48,69.44,32.8.25.08.27-.35.18-.55-.32-.71-3.82-3.59-4.69-4.3-29.23-23.89-76.65-26.94-79.21-73.58-.14-2.61.01-13.33,2.05-14.84,2.15-1.59,4.23,3.52,5.47,5.07,18.63,23.47,59.92,35.25,84.76,52.85Z"/>
    <path d="M157.9,184.48c.7-.07,1.18.05,1.24.88.13,1.75-3.69,4.32-4.9,5.6-10.09,10.64-19.29,22.31-24.43,36.23-7.43,20.12-7.23,43.07,4.73,61.38,1.32,2.02,5.56,6.73,6.05,8.55,1.22,4.47-3.34,1.32-4.89.02-5.72-4.8-10.83-13.33-13.39-20.32-10.73-29.34,1.3-63.56,23.69-83.99,1.96-1.79,9.65-8.13,11.9-8.36Z"/>
    <path d="M227.47,79.38c.48,1.52-3.99,2.19-8.26.57-4.59-1.73-7.92-7.77-5.23-6.2,2.52,1.47,2.97,2.52,6.94,4.09s6.33.83,6.55,1.54Z"/>
  </g>
  <text fill="currentColor" font-family="NotoSans-Medium, 'Noto Sans'" font-size="110.04" font-weight="500" transform="translate(349.44 185.32)"><tspan letter-spacing="-.03em" x="0" y="0">serliv</tspan><tspan letter-spacing="-.04em" x="264.19" y="0">r</tspan><tspan letter-spacing="-.02em" x="306" y="0">e.psi</tspan></text>
</svg>